<svg id="Camada_1" data-name="Camada 1" xmlns="http://www.w3.org/2000/svg" viewBox="0 0 48.5 48.5"><defs><style>.cls-1{fill:#fffae5;}.cls-2{fill:#7ff863;}.cls-3{fill:#fcbc7c;}.cls-4{fill:#fff;}.cls-5{fill:#534741;}.cls-6{fill:#e2985a;}.cls-7{fill:#a02328;}.cls-8{fill:#333;}</style></defs><path class="cls-1" d="M174.44,149.54a24.2,24.2,0,0,1-8.7,18.6l-.26.23-.23.17a21.1,21.1,0,0,1-2,1.47.06.06,0,0,0-.05,0,2.79,2.79,0,0,1-.31.2s0,0,0,0a18.85,18.85,0,0,1-1.88,1,4.11,4.11,0,0,1-.42.21l-.05,0a14.36,14.36,0,0,1-1.56.67,22.49,22.49,0,0,1-4.65,1.28l-.68.11a.6.6,0,0,1-.2,0c-.68.09-1.36.15-2,.19h-.11c-.4,0-.79,0-1.2,0h-.2a23.86,23.86,0,0,1-11.06-2.87l-.05,0c-.49-.25-1-.53-1.43-.82a.6.6,0,0,1-.11-.06,23.38,23.38,0,0,1-3-2.29h0a1.22,1.22,0,0,1-.17-.15,24.25,24.25,0,1,1,40.48-18Z" transform="translate(-125.94 -125.29)"/><path class="cls-2" d="M165.74,168.14l-.26.23-.23.17a21.1,21.1,0,0,1-2,1.47.06.06,0,0,0-.05,0,2.79,2.79,0,0,1-.31.2s0,0,0,0a18.85,18.85,0,0,1-1.88,1,4.11,4.11,0,0,1-.42.21l-.05,0a45,45,0,0,1-6.21,2l-.68.11a.6.6,0,0,1-.2,0c-.68.09-1.36.15-2,.19h-.11c-.4,0-.79,0-1.2,0h-.2a23.86,23.86,0,0,1-11.06-2.87l-.05,0c-.49-.25-1-.53-1.43-.82a.6.6,0,0,1-.11-.06,23.38,23.38,0,0,1-3-2.29h0a1.22,1.22,0,0,1-.17-.15A16.79,16.79,0,0,1,138.57,157a15.86,15.86,0,0,1,6.8-4.14,15.69,15.69,0,0,1,9.23.09A16.32,16.32,0,0,1,165.74,168.14Z" transform="translate(-125.94 -125.29)"/><path class="cls-3" d="M138.72,170.94c-.5-.26-1-.56-1.47-.86a.6.6,0,0,0-.11-.06,23.53,23.53,0,0,1-3-2.31c.49-4.33,2.08-7.82,4.24-9.37Z" transform="translate(-125.94 -125.29)"/><path class="cls-3" d="M165.48,168.37l-.23.17a21.1,21.1,0,0,1-2,1.47.06.06,0,0,0-.05,0,2.79,2.79,0,0,1-.31.2s0,0,0,0a18.85,18.85,0,0,1-1.88,1l-.33-12.79C163,160,164.84,163.71,165.48,168.37Z" transform="translate(-125.94 -125.29)"/><circle class="cls-3" cx="24.12" cy="20.27" r="8.69"/><circle class="cls-4" cx="20.99" cy="18.82" r="1.45"/><circle class="cls-4" cx="26.79" cy="18.82" r="1.45"/><circle class="cls-5" cx="21.72" cy="19.55" r="0.72"/><circle class="cls-5" cx="27.51" cy="19.55" r="0.72"/><polygon class="cls-6" points="22.8 22.15 25.43 21.21 24.93 23.96 22.8 22.15"/><path class="cls-7" d="M136.44,148.29c0-2,.83-1.35,1-2a2.92,2.92,0,0,1,.84-1.29,6.63,6.63,0,0,1,1.59-.22c1.77-.39,1.13-4.78,4.13-6.78a8.27,8.27,0,0,1,4.44-1.71c2.56-.29,2,1,4,0,.55-.27,2.54.48,3.56,1.71a20.19,20.19,0,0,1,2.44,3.29A17.31,17.31,0,0,1,159,146c0,1.12-3.08-2-3.56-2.71-.27-.4-1.2-2-2-2-1.38,0-1.63.78-3,1-2,.32-3.07-.77-4.95-.07-1.42.52-1.4,7.86-3.49,8.78C140.79,151.53,136.44,149.29,136.44,148.29Z" transform="translate(-125.94 -125.29)"/><path class="cls-8" d="M140.09,144.73c.4.24.6.3.76.62.07.16.06.39.15.53a.73.73,0,0,0,.42.3,2.4,2.4,0,0,1,.92.45,1.84,1.84,0,0,1,.47,1l-.05.09a1.73,1.73,0,0,1-1.11-.29,2,2,0,0,1-.37-.39,1.18,1.18,0,0,1-.25-.5.79.79,0,0,0-.27-.46c-.14-.1-.38-.12-.55-.22a.85.85,0,0,1-.22-1.14Z" transform="translate(-125.94 -125.29)"/></svg>