<svg id="Camada_1" data-name="Camada 1" xmlns="http://www.w3.org/2000/svg" viewBox="0 0 23.87 23.87"><defs><style>.cls-1{fill:#bbeacc;}.cls-2{fill:#f15a24;}.cls-3{fill:#fcbc7c;}.cls-4{fill:#fff;}.cls-5{fill:#534741;}.cls-6{fill:#e2985a;}.cls-7{fill:#fff066;}</style></defs><path class="cls-1" d="M107.13,124.93a11.93,11.93,0,0,1-4.28,9.16l-.25.19a10.23,10.23,0,0,1-1,.73h0l-.16.1h0a11.05,11.05,0,0,1-1.13.6,7.83,7.83,0,0,1-.79.34,11.49,11.49,0,0,1-2.62.69h-.1c-.34,0-.67.07-1,.09h-.05l-.59,0H95a11.6,11.6,0,0,1-4.26-.86,12.82,12.82,0,0,1-1.19-.55q-.37-.19-.72-.42l-.06,0a11,11,0,0,1-1.49-1.13l-.09-.08a11.93,11.93,0,1,1,19.92-8.87Z" transform="translate(-83.26 -113)"/><path class="cls-2" d="M102.85,134.09l-.25.19a10.23,10.23,0,0,1-1,.73h0l-.16.1h0a11.05,11.05,0,0,1-1.13.6,19.83,19.83,0,0,1-3.41,1h-.1c-.34,0-.67.07-1,.09h-.05l-.59,0H95a11.6,11.6,0,0,1-4.26-.86,12.82,12.82,0,0,1-1.19-.55q-.37-.19-.72-.42l-.06,0a11,11,0,0,1-1.49-1.13l-.09-.08a8.26,8.26,0,0,1,2.26-5.19A7.73,7.73,0,0,1,95,126.25,7.94,7.94,0,0,1,102.85,134.09Z" transform="translate(-83.26 -113)"/><path class="cls-3" d="M89.57,135.46q-.37-.19-.72-.42l-.06,0a11,11,0,0,1-1.49-1.13,6.68,6.68,0,0,1,2-4.62Z" transform="translate(-83.26 -113)"/><path class="cls-3" d="M102.6,134.28a10.23,10.23,0,0,1-1,.73h0l-.16.1h0a11.05,11.05,0,0,1-1.13.6l.25-6.46C101.64,130.07,102.44,132,102.6,134.28Z" transform="translate(-83.26 -113)"/><circle class="cls-3" cx="11.87" cy="9.97" r="4.27"/><circle class="cls-4" cx="10.33" cy="9.26" r="0.71"/><circle class="cls-4" cx="13.18" cy="9.26" r="0.71"/><circle class="cls-5" cx="10.69" cy="9.62" r="0.36"/><circle class="cls-5" cx="13.54" cy="9.62" r="0.36"/><polygon class="cls-6" points="11.22 10.9 12.52 10.44 12.27 11.79 11.22 10.9"/><path class="cls-7" d="M90.89,121.37c0-1,.4-.67.49-1a2.64,2.64,0,0,1,.41-.63.52.52,0,0,1,.29-.11c.87-.2.37-1,1.27-1.23s.49.5,1.48,0c.44-.22.49.5,1.47,0a1.49,1.49,0,0,1,1.49.61c.15.18.8.69,1,.87.49.49.49,2,.49,2s-1.24-.14-1.47-.49a1.41,1.41,0,0,0-1-.5c-.68,0-.8.39-1.47.5-1,.15-1.52-.38-2.44,0-.7.26-1.4.91-2.14.93A2.82,2.82,0,0,0,90.89,121.37Z" transform="translate(-83.26 -113)"/></svg>