<svg id="Camada_1" data-name="Camada 1" xmlns="http://www.w3.org/2000/svg" xmlns:xlink="http://www.w3.org/1999/xlink" viewBox="0 0 35.51 35.31"><defs><style>.cls-1{fill:#3d2e2a;}.cls-2{fill:none;stroke:#fff;stroke-miterlimit:10;}.cls-3{fill:url(#Gradiente_sem_nome_9);}.cls-4{fill:#8f8411;opacity:0.64;}.cls-5{fill:#150804;}.cls-6{fill:#a0724b;}</style><linearGradient id="Gradiente_sem_nome_9" x1="117.46" y1="75.5" x2="95.92" y2="98.7" gradientUnits="userSpaceOnUse"><stop offset="0.04" stop-color="#f0941d"/><stop offset="0.47" stop-color="#c1a90b"/><stop offset="1" stop-color="#eccd14"/></linearGradient></defs><path class="cls-1" d="M120,72.63s-2.73-1-3.85-1.28v3.42Z" transform="translate(-84.49 -70.65)"/><path class="cls-2" d="M100.75,98.72" transform="translate(-84.49 -70.65)"/><path class="cls-3" d="M106.31,98.3s5.14-2.57,6.85-5.14a20.39,20.39,0,0,0,2.56-8.55,50.11,50.11,0,0,0-.85-6.85s.58-2.38,1.28-3V71.35c-1.77-.42-4.28-1.71-7.7.85-1.61,1.21-3.42,4.28-4.28,6-1.08,2.17-2.21,2.06-3.85,3.85-.92,1-5.25,6.55-6,7.7s-2.57,5.13-2.57,5.13A76.55,76.55,0,0,0,84.93,100c-.86.85-.22.85,0,.85.53,0,1.6.51,2.11.37,2.07-.61,7.3-4.65,7.3-4.65a4.66,4.66,0,0,0,.85,0c.47-.11,1.24-.93,1.71-.85s1.48,1.15,1.71,1.71a.9.9,0,0,1,.07.4c-.07,1.31,2.07.88,2.07.88h3.42s.16,1.09.43,1.29a.89.89,0,0,0,.74,0,5.87,5.87,0,0,0,1,0Z" transform="translate(-84.49 -70.65)"/><path class="cls-4" d="M113.16,81.51c.89,1.67.58,7-.86,8.23-3.72,3.16-20.53,5.13-20.53,5.13a35.86,35.86,0,0,1,12-15.39C105.71,78.1,112,79.41,113.16,81.51Z" transform="translate(-84.49 -70.65)"/><circle class="cls-5" cx="28.66" cy="1.98" r="0.86"/><path class="cls-6" d="M100.75,98.72v.86l1.29,2.14.42.38s2.7-.38,3-.38.85.85.85.85h-3.42l1.71.86h.86l.85.85h-2.56l-1.71-.85h-.86l-1.71.85s0-.7,0-.85c.08-.47,1.71-.86,1.71-.86L99.47,100l-.86-.86a8.85,8.85,0,0,0,.07-1.31Z" transform="translate(-84.49 -70.65)"/><path class="cls-6" d="M110.47,103.72s2.5-.53,2.78-.55.86.75.86.75l-1.6.11-1.6.11,1.65.69.8-.06.86.75-2.4.16-1.66-.69-.8.06-1.54.91s-.07-.66-.06-.8c0-.45,1.23-.84,1.23-.84.4-.45-3.26-3.08-4.39-4.31h.86a1.67,1.67,0,0,0,.62-.3Z" transform="translate(-84.49 -70.65)"/></svg>