<svg id="Camada_1" data-name="Camada 1" xmlns="http://www.w3.org/2000/svg" viewBox="0 0 24.57 24.57"><defs><style>.cls-1{fill:#bce7ed;}.cls-2{fill:#f7931e;}.cls-3{fill:#c69c6d;}.cls-4{fill:#fff;}.cls-5{fill:#534741;}.cls-6{fill:#a67c52;}.cls-7{fill:#42210b;}</style></defs><path class="cls-1" d="M174.72,116.28a12.26,12.26,0,0,1-4.4,9.43l-.25.2a9.35,9.35,0,0,1-1,.74h0a.62.62,0,0,1-.16.1h0a9.91,9.91,0,0,1-1.16.62,8.41,8.41,0,0,1-.82.35,11.65,11.65,0,0,1-2.7.7l-.1,0c-.35,0-.69.07-1,.09H163l-.61,0h-.1a12.1,12.1,0,0,1-4.39-.88c-.42-.17-.82-.36-1.22-.57-.25-.14-.5-.28-.75-.44,0,0,0,0-.05,0a11.64,11.64,0,0,1-1.54-1.15l-.09-.09a12.28,12.28,0,1,1,20.5-9.13Z" transform="translate(-150.15 -104)"/><path class="cls-2" d="M170.32,125.71l-.25.2a9.35,9.35,0,0,1-1,.74h0a.62.62,0,0,1-.16.1h0a9.91,9.91,0,0,1-1.16.62,20.34,20.34,0,0,1-3.52,1l-.1,0c-.35,0-.69.07-1,.09H163l-.61,0h-.1a12.1,12.1,0,0,1-4.39-.88c-.42-.17-.82-.36-1.22-.57-.25-.14-.5-.28-.75-.44,0,0,0,0-.05,0a11.64,11.64,0,0,1-1.54-1.15l-.09-.09a8.46,8.46,0,0,1,2.33-5.34,8,8,0,0,1,5.71-2.43A8.17,8.17,0,0,1,170.32,125.71Z" transform="translate(-150.15 -104)"/><path class="cls-3" d="M156.65,127.12c-.25-.14-.5-.28-.75-.44,0,0,0,0-.05,0a11.64,11.64,0,0,1-1.54-1.15c.24-2.2,1-4,2.11-4.76Z" transform="translate(-150.15 -104)"/><path class="cls-3" d="M170.07,125.91a9.35,9.35,0,0,1-1,.74h0a.62.62,0,0,1-.16.1h0a9.91,9.91,0,0,1-1.16.62l.25-6.65C169.08,121.57,169.9,123.53,170.07,125.91Z" transform="translate(-150.15 -104)"/><circle class="cls-3" cx="12.22" cy="10.27" r="4.4"/><circle class="cls-4" cx="10.63" cy="9.53" r="0.73"/><circle class="cls-4" cx="13.57" cy="9.53" r="0.73"/><circle class="cls-5" cx="11" cy="9.9" r="0.37"/><circle class="cls-5" cx="13.93" cy="9.9" r="0.37"/><polygon class="cls-6" points="11.55 11.22 12.88 10.75 12.63 12.14 11.55 11.22"/><path class="cls-7" d="M157.86,112.8c.73-.73.33-1.06.42-1.5a.46.46,0,0,1,.45-.47c.9-.2,1.3-1.4,2-2a.66.66,0,0,1,.56-.21c.3.06.48.42.74.61a1.12,1.12,0,0,0,1.16,0,3,3,0,0,1,1.11-.45c.74,0,1.41.67,1.79,1.47a1.25,1.25,0,0,0,.41.58c.17.1.39.07.56.18.36.25-.06,1.68-.43,1.84s-1.23-.37-1.47-.73c-.14-.2-.17-.8-.57-.79-.71,0-1.17.9-1.86,1-1,.17-1.75-.58-2.7-.22-.72.26-1.44,1.45-2.2,1.46Z" transform="translate(-150.15 -104)"/></svg>