<svg id="Camada_1" data-name="Camada 1" xmlns="http://www.w3.org/2000/svg" viewBox="0 0 46.1 46.1"><defs><style>.cls-1{fill:#bce7ed;}.cls-2{fill:#f7931e;}.cls-3{fill:#c69c6d;}.cls-4{fill:#fff;}.cls-5{fill:#534741;}.cls-6{fill:#a67c52;}.cls-7{fill:#42210b;}</style></defs><path class="cls-1" d="M180,65.05a23,23,0,0,1-8.27,17.68,3.4,3.4,0,0,1-.47.38,22.19,22.19,0,0,1-1.94,1.4h0a2.6,2.6,0,0,1-.3.2s0,0,0,0a20.74,20.74,0,0,1-2.19,1.16c-.49.24-1,.46-1.52.66a22.64,22.64,0,0,1-5.07,1.32l-.19,0c-.65.09-1.29.14-1.95.18h-.1c-.39,0-.76,0-1.14,0h-.2a22.83,22.83,0,0,1-8.23-1.65,23.66,23.66,0,0,1-2.28-1.07c-.48-.25-.95-.53-1.4-.82l-.11,0a22,22,0,0,1-2.88-2.18c-.07,0-.12-.11-.18-.16A23,23,0,1,1,180,65.05Z" transform="translate(-133.88 -42)"/><path class="cls-2" d="M171.71,82.73a3.4,3.4,0,0,1-.47.38,22.19,22.19,0,0,1-1.94,1.4h0a2.6,2.6,0,0,1-.3.2s0,0,0,0a20.74,20.74,0,0,1-2.19,1.16,38.62,38.62,0,0,1-6.59,2l-.19,0c-.65.09-1.29.14-1.95.18h-.1c-.39,0-.76,0-1.14,0h-.2a22.83,22.83,0,0,1-8.23-1.65,23.66,23.66,0,0,1-2.28-1.07c-.48-.25-.95-.53-1.4-.82l-.11,0a22,22,0,0,1-2.88-2.18c-.07,0-.12-.11-.18-.16a15.93,15.93,0,0,1,4.38-10,14.87,14.87,0,0,1,10.7-4.55A15.33,15.33,0,0,1,171.71,82.73Z" transform="translate(-133.88 -42)"/><path class="cls-3" d="M146.07,85.38c-.48-.25-.95-.53-1.4-.82l-.11,0a22,22,0,0,1-2.88-2.18c.44-4.11,1.93-7.44,4-8.93Z" transform="translate(-133.88 -42)"/><path class="cls-3" d="M171.24,83.11a22.19,22.19,0,0,1-1.94,1.4h0a2.6,2.6,0,0,1-.3.2s0,0,0,0a20.74,20.74,0,0,1-2.19,1.16l.49-12.49C169.38,75,170.92,78.65,171.24,83.11Z" transform="translate(-133.88 -42)"/><circle class="cls-3" cx="22.92" cy="19.27" r="8.26"/><circle class="cls-4" cx="19.95" cy="17.89" r="1.38"/><circle class="cls-4" cx="25.46" cy="17.89" r="1.38"/><circle class="cls-5" cx="20.64" cy="18.58" r="0.69"/><circle class="cls-5" cx="26.15" cy="18.58" r="0.69"/><polygon class="cls-6" points="21.67 21.05 24.17 20.16 23.69 22.77 21.67 21.05"/><path class="cls-7" d="M148.33,58.51c1.37-1.37.63-2,.8-2.82a1.19,1.19,0,0,1,.27-.66,1.27,1.27,0,0,1,.57-.21c1.68-.37,2.44-2.64,3.8-3.83a1.26,1.26,0,0,1,1.07-.4c.54.12.89.8,1.38,1.15a2.07,2.07,0,0,0,2.16,0,6.09,6.09,0,0,1,2.1-.84c1.39-.1,2.64,1.27,3.35,2.75a2.51,2.51,0,0,0,.77,1.1c.33.19.73.13,1.06.35.68.46-.11,3.14-.82,3.44s-2.29-.69-2.75-1.37c-.26-.38-.31-1.5-1.07-1.48-1.32,0-2.2,1.69-3.49,1.9-1.87.31-3.29-1.09-5.07-.42-1.35.5-2.7,2.72-4.13,2.75Z" transform="translate(-133.88 -42)"/></svg>